<?xml version="1.0" encoding="UTF-8" standalone="no"?>
<!-- Created with Inkscape (http://www.inkscape.org/) -->
<svg
   xmlns:dc="http://purl.org/dc/elements/1.1/"
   xmlns:cc="http://creativecommons.org/ns#"
   xmlns:rdf="http://www.w3.org/1999/02/22-rdf-syntax-ns#"
   xmlns:svg="http://www.w3.org/2000/svg"
   xmlns="http://www.w3.org/2000/svg"
   xmlns:sodipodi="http://sodipodi.sourceforge.net/DTD/sodipodi-0.dtd"
   xmlns:inkscape="http://www.inkscape.org/namespaces/inkscape"
   width="155"
   height="155"
   id="svg2"
   sodipodi:version="0.32"
   inkscape:version="0.46"
   version="1.0"
   sodipodi:docname="Wikimedia-Collab-logo.svg"
   inkscape:output_extension="org.inkscape.output.svg.inkscape">
  <defs
     id="defs4" />
  <sodipodi:namedview
     id="base"
     pagecolor="#ffffff"
     bordercolor="#666666"
     borderopacity="1.0"
     gridtolerance="10000"
     guidetolerance="10"
     objecttolerance="10"
     inkscape:pageopacity="0.0"
     inkscape:pageshadow="2"
     inkscape:zoom="2.8284271"
     inkscape:cx="57.33379"
     inkscape:cy="66.348503"
     inkscape:document-units="px"
     inkscape:current-layer="layer1"
     showgrid="false"
     width="155px"
     showguides="false"
     inkscape:snap-global="false"
     inkscape:window-width="1440"
     inkscape:window-height="783"
     inkscape:window-x="0"
     inkscape:window-y="22">
    <inkscape:grid
       type="xygrid"
       id="grid3165"
       visible="true"
       enabled="true" />
  </sodipodi:namedview>
  <metadata
     id="metadata7">
    <rdf:RDF>
      <cc:Work
         rdf:about="">
        <dc:format>image/svg+xml</dc:format>
        <dc:type
           rdf:resource="http://purl.org/dc/dcmitype/StillImage" />
        <dc:title>Wikimedia Collab Logo</dc:title>
        <dc:date>05/22/2009</dc:date>
        <dc:creator>
          <cc:Agent>
            <dc:title>Trevor Parscal</dc:title>
          </cc:Agent>
        </dc:creator>
        <cc:license
           rdf:resource="http://creativecommons.org/licenses/by-sa/3.0/" />
      </cc:Work>
      <cc:License
         rdf:about="http://creativecommons.org/licenses/by-sa/3.0/">
        <cc:permits
           rdf:resource="http://creativecommons.org/ns#Reproduction" />
        <cc:permits
           rdf:resource="http://creativecommons.org/ns#Distribution" />
        <cc:requires
           rdf:resource="http://creativecommons.org/ns#Notice" />
        <cc:requires
           rdf:resource="http://creativecommons.org/ns#Attribution" />
        <cc:permits
           rdf:resource="http://creativecommons.org/ns#DerivativeWorks" />
        <cc:requires
           rdf:resource="http://creativecommons.org/ns#ShareAlike" />
      </cc:License>
    </rdf:RDF>
  </metadata>
  <g
     inkscape:label="Layer 1"
     inkscape:groupmode="layer"
     id="layer1">
    <path
       style="font-size: 24px; font-style: normal; font-variant: normal; font-weight: bold; font-stretch: normal; text-align: start; line-height: 125%; text-anchor: start; fill: rgb(102, 102, 102); fill-opacity: 1; stroke: none; stroke-width: 1px; stroke-linecap: butt; stroke-linejoin: miter; stroke-opacity: 1; font-family: Gill Sans;"
       d="M 40.808594,137.14032 C 40.136703,137.49188 39.449204,137.77313 38.746094,137.98407 C 38.042955,138.19501 37.332018,138.34344 36.613281,138.42938 C 35.902332,138.52313 35.164052,138.57001 34.398438,138.57001 C 32.984366,138.57001 31.714836,138.37469 30.589844,137.98407 C 29.472651,137.59345 28.499996,137.01923 27.671875,136.26141 C 26.85156,135.49579 26.234373,134.60517 25.820312,133.58954 C 25.414061,132.56611 25.210937,131.44501 25.210938,130.22626 C 25.210937,128.82783 25.453124,127.60517 25.9375,126.55829 C 26.421873,125.50361 27.097653,124.62861 27.964844,123.93329 C 28.839839,123.23799 29.832026,122.72627 30.941406,122.39813 C 32.058586,122.06221 33.234366,121.89424 34.46875,121.89423 C 36.312488,121.89424 38.40233,122.3044 40.738281,123.12469 L 40.738281,127.43719 C 39.933578,126.93721 39.136704,126.52314 38.347656,126.19501 C 37.566393,125.85908 36.644519,125.69111 35.582031,125.6911 C 34.636708,125.69111 33.753897,125.87861 32.933594,126.2536 C 32.113273,126.62861 31.453118,127.16377 30.953125,127.85907 C 30.453119,128.55439 30.203119,129.36689 30.203125,130.29657 C 30.203119,131.11689 30.421869,131.8708 30.859375,132.55829 C 31.296868,133.23798 31.902336,133.78095 32.675781,134.18719 C 33.457022,134.58564 34.335927,134.78485 35.3125,134.78485 C 36.101551,134.78485 36.847644,134.6911 37.550781,134.5036 C 38.253892,134.30829 38.843735,134.09345 39.320312,133.85907 C 39.804672,133.6247 40.300765,133.34736 40.808594,133.02704 L 40.808594,137.14032"
       id="path2405" />
    <path
       style="font-size: 24px; font-style: normal; font-variant: normal; font-weight: bold; font-stretch: normal; text-align: start; line-height: 125%; text-anchor: start; fill: rgb(102, 102, 102); fill-opacity: 1; stroke: none; stroke-width: 1px; stroke-linecap: butt; stroke-linejoin: miter; stroke-opacity: 1; font-family: Gill Sans;"
       d="M 52.28125 121.90625 C 50.273429 121.90626 48.585931 122.28127 47.1875 123.0625 C 45.796871 123.83595 44.765622 124.85158 44.09375 126.125 C 43.421874 127.39064 43.0625 128.75782 43.0625 130.21875 C 43.0625 131.67188 43.421874 133.03907 44.09375 134.3125 C 44.773435 135.58594 45.796871 136.625 47.1875 137.40625 C 48.578118 138.1875 50.273429 138.5625 52.28125 138.5625 C 54.265613 138.5625 55.960924 138.1875 57.34375 137.4375 C 58.726546 136.6875 59.74217 135.67969 60.4375 134.40625 C 61.140606 133.13282 61.499981 131.73438 61.5 130.21875 C 61.499981 129.10157 61.296856 128.03907 60.90625 127.03125 C 60.515606 126.01563 59.945294 125.13283 59.1875 124.375 C 58.429672 123.60939 57.460923 123.00783 56.28125 122.5625 C 55.109362 122.11721 53.781238 121.90626 52.28125 121.90625 z M 52.28125 126.0625 C 52.968739 126.06251 53.570301 126.16407 54.09375 126.375 C 54.617175 126.57813 55.078112 126.87502 55.4375 127.25 C 55.804674 127.6172 56.070298 128.0547 56.25 128.5625 C 56.429673 129.06251 56.499985 129.60938 56.5 130.21875 C 56.499985 131.03125 56.359361 131.77344 56.03125 132.40625 C 55.703112 133.03125 55.226549 133.51563 54.59375 133.875 C 53.960926 134.22657 53.179676 134.40626 52.28125 134.40625 C 50.976554 134.40626 49.945305 134.01563 49.1875 133.25 C 48.437494 132.47657 48.062494 131.46094 48.0625 130.21875 C 48.062494 128.97657 48.437494 127.98438 49.1875 127.21875 C 49.937492 126.45314 50.968741 126.06251 52.28125 126.0625 z "
       id="path2403" />
    <path
       style="font-size: 24px; font-style: normal; font-variant: normal; font-weight: bold; font-stretch: normal; text-align: start; line-height: 125%; text-anchor: start; fill: rgb(102, 102, 102); fill-opacity: 1; stroke: none; stroke-width: 1px; stroke-linecap: butt; stroke-linejoin: miter; stroke-opacity: 1; font-family: Gill Sans;"
       d="M 76.902344,138.35907 L 64.5625,138.35907 L 64.5625,122.11688 L 69.460938,122.11688 L 69.460938,134.46844 L 76.902344,134.46844 L 76.902344,138.35907"
       id="path2399" />
    <path
       style="font-size: 24px; font-style: normal; font-variant: normal; font-weight: bold; font-stretch: normal; text-align: start; line-height: 125%; text-anchor: start; fill: rgb(102, 102, 102); fill-opacity: 1; stroke: none; stroke-width: 1px; stroke-linecap: butt; stroke-linejoin: miter; stroke-opacity: 1; font-family: Gill Sans;"
       d="M 92.089844,138.35907 L 79.75,138.35907 L 79.75,122.11688 L 84.648438,122.11688 L 84.648438,134.46844 L 92.089844,134.46844 L 92.089844,138.35907"
       id="path2397" />
    <path
       style="font-size: 24px; font-style: normal; font-variant: normal; font-weight: bold; font-stretch: normal; text-align: start; line-height: 125%; text-anchor: start; fill: rgb(102, 102, 102); fill-opacity: 1; stroke: none; stroke-width: 1px; stroke-linecap: butt; stroke-linejoin: miter; stroke-opacity: 1; font-family: Gill Sans;"
       d="M 100.1875 122.125 L 93 138.34375 L 98.03125 138.34375 L 99.375 135.0625 L 106.4375 135.0625 L 107.75 138.34375 L 112.78125 138.34375 L 105.625 122.125 L 100.1875 122.125 z M 102.9375 126.3125 L 105.3125 132.25 L 100.53125 132.25 L 102.9375 126.3125 z "
       id="path2395" />
    <path
       style="font-size: 24px; font-style: normal; font-variant: normal; font-weight: bold; font-stretch: normal; text-align: start; line-height: 125%; text-anchor: start; fill: rgb(102, 102, 102); fill-opacity: 1; stroke: none; stroke-width: 1px; stroke-linecap: butt; stroke-linejoin: miter; stroke-opacity: 1; font-family: Gill Sans;"
       d="M 114.9375 122.125 L 114.9375 138.34375 L 124.34375 138.34375 C 126.06249 138.34375 127.39061 137.92969 128.34375 137.09375 C 129.30467 136.25782 129.78124 135.14844 129.78125 133.75 C 129.78124 132.68751 129.49217 131.82032 128.90625 131.15625 C 128.32811 130.48438 127.48436 129.93751 126.375 129.5 C 126.72654 129.3672 127.09373 129.13282 127.4375 128.8125 C 127.78904 128.48438 128.07811 128.06251 128.3125 127.5625 C 128.54686 127.0547 128.65624 126.53126 128.65625 125.9375 C 128.65624 125.39063 128.53905 124.8672 128.3125 124.40625 C 128.08592 123.94532 127.74217 123.55471 127.28125 123.21875 C 126.8203 122.87502 126.1953 122.60158 125.4375 122.40625 C 124.68749 122.21095 123.82811 122.12502 122.8125 122.125 L 114.9375 122.125 z M 119.84375 124.84375 L 120.875 124.84375 C 121.96874 124.84376 122.79686 124.96095 123.3125 125.21875 C 123.82811 125.47658 124.06249 126.00002 124.0625 126.78125 C 124.06249 127.56251 123.81249 128.08595 123.3125 128.34375 C 122.82031 128.60157 122.02343 128.75001 120.90625 128.75 L 119.84375 128.75 L 119.84375 124.84375 z M 119.84375 131.46875 L 121.84375 131.46875 C 123.85936 131.46876 124.87499 132.17188 124.875 133.5625 C 124.87499 134.94532 123.85936 135.625 121.84375 135.625 L 119.84375 135.625 L 119.84375 131.46875 z "
       id="path2391" />
  </g>
  <g
     inkscape:groupmode="layer"
     id="layer2"
     style="opacity:1">
    <path
       sodipodi:type="arc"
       style="fill:#990000;fill-opacity:1;fill-rule:nonzero;stroke:none;stroke-width:3.10100007;stroke-miterlimit:4;stroke-dasharray:none;stroke-opacity:1"
       id="path2383"
       sodipodi:cx="32.880466"
       sodipodi:cy="49.287537"
       sodipodi:rx="16.970562"
       sodipodi:ry="16.970562"
       d="M 49.851028,49.287537 A 16.970562,16.970562 0 1 1 15.909904,49.287537 A 16.970562,16.970562 0 1 1 49.851028,49.287537 z"
       transform="matrix(0.660376,0,0,-0.660376,30.029169,60.175)" />
    <path
       style="fill:#006699;fill-opacity:1;fill-rule:evenodd;stroke:none;stroke-width:9;stroke-linecap:butt;stroke-linejoin:miter;stroke-miterlimit:4;stroke-dasharray:none;stroke-opacity:1"
       d="M 66.34375 25.59375 C 66.34019 31.368835 64.832818 34.259906 62.3125 36.78125 C 59.792182 39.302594 55.812457 41.304497 51.0625 43.5625 C 41.562587 48.078506 28.926408 54.191699 23.4375 70.875 L 31.96875 73.6875 C 35.203428 63.855835 40.783594 59.119633 47.25 55.53125 L 47.25 67 C 47.249999 72.784431 43.993016 82.623062 39.15625 90.40625 C 34.319484 98.189438 27.905824 103.36761 24.0625 103.46875 L 24.28125 112.46875 C 33.872955 112.21633 41.219441 104.15644 46.8125 95.15625 C 46.959243 94.920115 47.105702 94.675566 47.25 94.4375 L 47.25 107.96875 L 47.25 112.46875 L 56.25 112.46875 L 56.25 107.96875 L 56.25 51.09375 C 60.615711 49.007819 65.007822 46.774914 68.65625 43.125 C 72.669558 39.110058 75.339045 33.224473 75.34375 25.59375 L 66.34375 25.59375 z "
       id="path3161" />
    <path
       transform="matrix(-0.660376,0,0,-0.660376,124.97082,60.175)"
       d="M 49.851028,49.287537 A 16.970562,16.970562 0 1 1 15.909904,49.287537 A 16.970562,16.970562 0 1 1 49.851028,49.287537 z"
       sodipodi:ry="16.970562"
       sodipodi:rx="16.970562"
       sodipodi:cy="49.287537"
       sodipodi:cx="32.880466"
       id="path3190"
       style="fill:#990000;fill-opacity:1;fill-rule:nonzero;stroke:none;stroke-width:3.10100007;stroke-miterlimit:4;stroke-dasharray:none;stroke-opacity:1"
       sodipodi:type="arc" />
    <path
       style="fill:#339966;fill-opacity:1;fill-rule:evenodd;stroke:none;stroke-width:9;stroke-linecap:butt;stroke-linejoin:miter;stroke-miterlimit:4;stroke-dasharray:none;stroke-opacity:1"
       d="M 79.65625 25.59375 C 79.660954 33.224473 82.330443 39.110058 86.34375 43.125 C 89.992177 46.774914 94.38429 49.007819 98.75 51.09375 L 98.75 107.96875 L 98.75 112.46875 L 107.75 112.46875 L 107.75 107.96875 L 107.75 94.4375 C 107.8943 94.675566 108.04076 94.920115 108.1875 95.15625 C 113.78056 104.15644 121.12705 112.21633 130.71875 112.46875 L 130.9375 103.46875 C 127.09417 103.36761 120.68052 98.189438 115.84375 90.40625 C 111.00698 82.623062 107.75 72.784431 107.75 67 L 107.75 55.53125 C 114.21641 59.119633 119.79658 63.855835 123.03125 73.6875 L 131.5625 70.875 C 126.07359 54.191699 113.43741 48.078506 103.9375 43.5625 C 99.187544 41.304497 95.207817 39.302594 92.6875 36.78125 C 90.167183 34.259906 88.65981 31.368835 88.65625 25.59375 L 79.65625 25.59375 z "
       id="path3176" />
  </g>
</svg>
